# xmcd
#
# Track frame offsets:
#	150
#	18812
#	33661
#	51069
#	68634
#	90119
#	110193
#	125405
#	144380
#	165240
#	182180
#	200842
#	216054
#	234406
#	249618
#	265850
#	283818
#	299504
#	314563
#
# Disc length: 4369
#
# Revision: 2
# Processed by: cddbd v1.5.1PL0 Copyright (c) Steve Scherf et al.
# Submitted via: CDex 1.40Beta6
# Normalized: r1:TRMNUM
#
DISCID=1b110f13
DTITLE=SHANIA TWAIN - UP
DYEAR=2002
DGENRE=Country
TTITLE0=SHANIA TWAIN-UP
TTITLE1=SHANIA TWAIN-IM GONNA GETCHA GOOD
TTITLE2=SHANIA TWAIN-SHES NOT JUST A PRETTY FACE
TTITLE3=SHANIA TWAIN-JUANITA
TTITLE4=SHANIA TWAIN-FOREVER AND FOR ALWAYS
TTITLE5=SHANIA TWAIN-AINT NO PARTICULAR WAY
TTITLE6=SHANIA TWAIN-IT ONLY HURTS WHEN IM BREATHING
TTITLE7=SHANIA TWAIN-NAH
TTITLE8=SHANIA TWAIN-(WANNA GET TO KNOW YOU) THATS GOOD
TTITLE9=SHANIA TWAIN-CEST LA VE
TTITLE10=SHANIA TWAIN-IM JEALOUS
TTITLE11=SHANIA TWAIN-KA CHING
TTITLE12=SHANIA TWAIN-THANK YOU BABY
TTITLE13=SHANIA TWAIN-WAITER BRING ME WATER
TTITLE14=SHANIA TWAIN-WHAT A WAY TO WANNA BE
TTITLE15=SHANIA TWAIN-I AINT GOIN DOWN
TTITLE16=SHANIA TWAIN-IM NOT IN THE MOOD (TO SAY NO)
TTITLE17=SHANIA TWAIN-IN MY CAR (ILL BE THE DRIVER)
TTITLE18=SHANIA TWAIN-WHEN YOU KISS ME
EXTD=
EXTT0=
EXTT1=
EXTT2=
EXTT3=
EXTT4=
EXTT5=
EXTT6=
EXTT7=
EXTT8=
EXTT9=
EXTT10=
EXTT11=
EXTT12=
EXTT13=
EXTT14=
EXTT15=
EXTT16=
EXTT17=
EXTT18=
PLAYORDER=
